<?xml version="1.0" standalone="no"?>
<!DOCTYPE svg PUBLIC "-//W3C//DTD SVG 20010904//EN"
 "http://www.w3.org/TR/2001/REC-SVG-20010904/DTD/svg10.dtd">
<svg version="1.0" xmlns="http://www.w3.org/2000/svg"
 width="259.000000pt" height="194.000000pt" viewBox="0 0 259.000000 194.000000"
 preserveAspectRatio="xMidYMid meet">
<metadata>
Created by potrace 1.15, written by Peter Selinger 2001-2017
</metadata>
<g transform="translate(0.000000,194.000000) scale(0.100000,-0.100000)"
fill="#000000" stroke="none">
<path d="M1280 1645 c30 -7 96 -22 147 -33 92 -21 207 -67 199 -81 -3 -4 18
-19 45 -34 74 -42 153 -130 199 -222 22 -44 42 -93 45 -110 3 -18 -3 -9 -14
20 -10 28 -28 68 -41 90 -28 49 -80 122 -80 111 0 -5 -15 8 -34 28 -44 49 -97
87 -109 79 -6 -4 -7 -1 -3 6 5 8 3 11 -5 10 -8 -1 -25 2 -39 8 -14 6 -41 15
-60 21 -19 6 -64 19 -100 30 -36 11 -84 25 -107 32 -30 9 -66 11 -120 5 -43
-4 -88 -8 -100 -9 -12 0 -20 -3 -17 -5 2 -2 -22 -15 -54 -28 -31 -13 -63 -27
-71 -30 -10 -5 -12 -2 -6 7 12 19 -48 -18 -113 -70 -68 -55 -153 -170 -182
-246 -11 -31 -24 -95 -29 -144 -12 -114 4 -196 61 -310 44 -88 57 -118 38 -87
-14 21 -30 22 -30 1 0 -14 -3 -14 -15 -4 -22 18 -18 -3 5 -32 11 -14 32 -28
47 -31 59 -11 72 -16 121 -51 70 -51 205 -112 280 -127 45 -9 58 -15 45 -21
-16 -6 -16 -7 4 -14 18 -5 21 -10 13 -24 -7 -13 -6 -21 2 -26 19 -12 198 -9
259 5 48 10 62 10 90 -3 19 -9 25 -14 14 -11 -11 2 -40 -2 -65 -9 -35 -10 -40
-15 -25 -19 16 -4 14 -5 -5 -4 -14 1 -42 -6 -63 -16 -20 -10 -42 -15 -48 -12
-5 4 -21 -1 -34 -9 -15 -10 -34 -14 -49 -10 -14 3 -33 1 -43 -5 -29 -17 110
-14 208 5 88 16 216 68 284 114 92 63 193 181 232 270 37 84 45 109 40 122 -4
9 -6 8 -6 -3 -1 -9 -8 -23 -18 -30 -15 -13 -15 -12 0 18 10 18 17 40 18 50 0
16 1 16 8 -2 8 -20 21 104 21 200 -1 174 -94 361 -239 481 -73 61 -225 136
-258 128 -15 -4 -30 0 -42 10 -21 19 -118 36 -201 35 l-55 -1 55 -13z m54 -80
c20 -9 34 -20 31 -26 -4 -5 -1 -17 6 -25 10 -12 7 -20 -14 -42 -15 -16 -27
-33 -27 -39 0 -11 -53 -23 -102 -23 -18 0 -28 -5 -28 -15 0 -18 -70 -21 -87
-4 -8 8 -30 2 -82 -22 -39 -18 -71 -36 -71 -41 0 -4 -7 -8 -15 -8 -8 0 -15 -4
-15 -9 0 -5 -17 -17 -37 -26 -21 -10 -50 -31 -66 -46 -15 -16 -31 -28 -35 -27
-4 1 -18 -4 -32 -10 -23 -11 -21 -11 15 -7 l40 5 -40 -14 c-54 -19 -22 -20 39
-1 66 20 92 19 116 -5 24 -24 26 -76 5 -107 -8 -12 -36 -29 -62 -39 -27 -9
-52 -21 -57 -25 -4 -4 -4 -28 2 -54 9 -44 9 -47 -15 -56 -14 -5 -28 -8 -30 -5
-5 5 -42 208 -43 236 0 9 -6 5 -15 -10 -17 -29 -19 -54 -5 -45 6 3 10 -4 10
-17 0 -18 -2 -20 -10 -8 -7 10 -10 -6 -9 -55 0 -48 3 -64 9 -50 11 26 12 9 1
-37 -7 -31 -6 -36 8 -30 14 5 14 4 1 -14 -8 -10 -15 -20 -16 -22 -1 -2 -11 27
-23 64 -35 111 -25 227 29 343 34 71 35 75 18 65 -17 -11 19 44 61 92 18 21
31 31 28 22 -9 -26 6 -22 34 8 37 39 126 90 209 118 90 30 215 35 274 11z
m419 -211 c15 -11 27 -22 27 -26 0 -16 -41 -17 -74 -1 -28 13 -41 15 -54 6
-25 -16 -21 -82 7 -121 37 -53 102 -54 109 -3 3 18 9 22 30 19 23 -3 27 -7 25
-32 -4 -48 -25 -61 -99 -61 -63 0 -67 2 -99 37 -90 98 -55 215 61 205 23 -3
53 -13 67 -23z m-299 -131 c20 -60 36 -115 36 -124 0 -10 -11 -19 -27 -22 -23
-4 -40 6 -104 64 -42 38 -79 69 -82 69 -2 0 6 -37 19 -82 13 -45 23 -82 21
-83 -1 -1 -14 -5 -28 -8 -25 -6 -26 -5 -61 121 l-35 127 28 9 c25 8 36 2 109
-58 44 -37 80 -62 80 -57 0 6 -11 40 -25 77 -14 36 -25 68 -25 70 0 2 13 4 28
4 28 0 30 -5 66 -107z m-374 43 c-9 -12 4 -34 74 -121 47 -59 86 -111 86 -115
0 -4 -12 -10 -27 -13 -22 -5 -33 0 -50 20 -21 26 -22 26 -81 13 -60 -12 -61
-13 -67 -51 -5 -30 -12 -40 -31 -45 -14 -4 -27 -4 -30 -1 -3 3 6 68 21 144
l27 139 41 21 c23 11 44 21 46 21 2 1 -2 -4 -9 -12z"/>
</g>
</svg>
